<?xml version="1.0" encoding="utf-8"?>
<!-- Generator: Adobe Illustrator 16.0.0, SVG Export Plug-In . SVG Version: 6.00 Build 0)  -->
<!DOCTYPE svg PUBLIC "-//W3C//DTD SVG 1.1//EN" "http://www.w3.org/Graphics/SVG/1.1/DTD/svg11.dtd">
<svg version="1.1" id="Layer_1" xmlns="http://www.w3.org/2000/svg" xmlns:xlink="http://www.w3.org/1999/xlink" x="0px" y="0px"
	 width="70px" height="70px" viewBox="304.239 323 70 70" enable-background="new 304.239 323 70 70" xml:space="preserve">
<title></title>
<desc>Created with Sketch.</desc>
<g id="ico_pg_wh_press" transform="translate(14.000000, 258.000000)">
	<path id="Combined-Shape_3_" fill="#FFFFFF" d="M-187.5,301.85c-12.427,0-22.5-10.073-22.5-22.5c0-12.426,10.073-22.5,22.5-22.5
		c12.426,0,22.5,10.074,22.5,22.5C-165,291.776-175.074,301.85-187.5,301.85z M-196.236,279.537l8.1,8.1
		c0.352,0.352,0.922,0.352,1.272,0c0.352-0.352,0.352-0.922,0-1.273l-6.563-6.562h14.027c0.497,0,0.9-0.404,0.9-0.9
		c0-0.498-0.403-0.9-0.9-0.9h-14.027l6.563-6.563c0.352-0.352,0.352-0.921,0-1.272c-0.351-0.352-0.921-0.352-1.272,0l-8.1,8.1
		c-0.163,0.163-0.264,0.388-0.264,0.637C-196.5,279.148-196.399,279.373-196.236,279.537z"/>
	<path id="Combined-Shape_4_" fill="#FFFFFF" d="M-106.5,256.85c12.426,0,22.5,10.074,22.5,22.5c0,12.427-10.074,22.5-22.5,22.5
		c-12.427,0-22.5-10.073-22.5-22.5C-129,266.924-118.927,256.85-106.5,256.85z M-97.763,279.164l-8.101-8.1
		c-0.351-0.352-0.921-0.352-1.272,0c-0.352,0.351-0.352,0.92,0,1.271l6.563,6.564H-114.6c-0.497,0-0.899,0.402-0.899,0.9
		c0,0.496,0.402,0.899,0.899,0.899h14.027l-6.563,6.563c-0.352,0.352-0.352,0.922,0,1.273s0.922,0.352,1.272,0l8.101-8.101
		c0.163-0.163,0.264-0.388,0.264-0.636C-97.5,279.552-97.6,279.326-97.763,279.164z"/>
</g>
<g id="ico_pg_bk_press" transform="translate(176.000000, 258.000000)">
	<path id="Combined-Shape_5_" d="M-187.5,301.85c-12.427,0-22.5-10.073-22.5-22.5c0-12.426,10.073-22.5,22.5-22.5
		c12.426,0,22.5,10.074,22.5,22.5C-165,291.776-175.074,301.85-187.5,301.85z M-196.236,279.537l8.1,8.1
		c0.352,0.352,0.922,0.352,1.272,0c0.352-0.352,0.352-0.922,0-1.273l-6.563-6.562h14.027c0.497,0,0.9-0.404,0.9-0.9
		c0-0.498-0.403-0.9-0.9-0.9h-14.027l6.563-6.563c0.352-0.352,0.352-0.921,0-1.272c-0.351-0.352-0.921-0.352-1.272,0l-8.1,8.1
		c-0.163,0.163-0.264,0.388-0.264,0.637C-196.5,279.148-196.399,279.373-196.236,279.537z"/>
	<path id="Combined-Shape_6_" d="M-106.5,256.85c12.426,0,22.5,10.074,22.5,22.5c0,12.427-10.074,22.5-22.5,22.5
		c-12.427,0-22.5-10.073-22.5-22.5C-129,266.924-118.927,256.85-106.5,256.85z M-97.763,279.164l-8.101-8.1
		c-0.352-0.352-0.921-0.352-1.272,0c-0.352,0.351-0.352,0.92,0,1.271l6.563,6.564H-114.6c-0.497,0-0.899,0.402-0.899,0.9
		c0,0.496,0.402,0.899,0.899,0.899h14.027l-6.563,6.563c-0.352,0.352-0.352,0.922,0,1.273s0.921,0.352,1.272,0l8.101-8.101
		c0.163-0.163,0.264-0.388,0.264-0.636C-97.5,279.552-97.6,279.326-97.763,279.164z"/>
</g>
<path id="Fill-1_7_" fill="#FFFFFF" d="M304.239,358c0,19.33,15.67,35,35,35s35-15.67,35-35s-15.67-35-35-35
	S304.239,338.67,304.239,358z"/>
<polygon id="Path" points="299.739,406.5 293.739,406.5 293.739,412.5 289.739,412.5 289.739,406.5 283.739,406.5 283.739,402.5 
	289.739,402.5 289.739,396.5 293.739,396.5 293.739,402.5 299.739,402.5 "/>
<g id="btn_view_more_" transform="translate(80.000000, 325.000000)" opacity="0.4">
	<path id="Fill-1_8_" d="M-176.999,299h-6v6h-4v-6h-6v-4h6v-6h4v6h6V299z M-219.999,297c0,19.33,15.67,35,35,35
		C-165.67,332-150,316.33-150,297s-15.67-35-34.999-35C-204.329,262-219.999,277.67-219.999,297z"/>
</g>
<g id="btn_close_1_" transform="translate(160.000000, 325.000000)">
	<circle id="Oval_1_" fill="#FFFFFF" cx="-136.5" cy="316" r="35"/>
	<polygon id="Fill-1_9_" points="-131.3,308 -136.5,313.2 -141.7,308 -144.5,310.8 -139.3,316 -144.5,321.2 -141.7,324 
		-136.5,318.8 -131.3,324 -128.5,321.2 -133.7,316 -128.5,310.8 	"/>
</g>
<g id="btn_menu_1_" transform="translate(0.000000, 669.000000)">
	<polygon id="Combined-Shape_8_" points="134,20 142,20 142,24 134,24 134,32 130,32 130,24 122,24 122,20 130,20 130,12 134,12 	
		"/>
	<polygon id="Rectangle_1_" fill="none" points="122,12 142,12 142,32 122,32 	"/>
</g>
<g id="btn_menu_2_" transform="translate(0.000000, 595.000000)">
	<polygon id="Combined-Shape_11_" points="139.828,27 145.486,32.657 142.656,35.485 137,29.828 131.343,35.485 128.515,32.657 
		134.171,27 128.515,21.343 131.343,18.515 137,24.172 142.656,18.515 145.486,21.343 	"/>
	<polygon id="Rectangle_4_" fill="none" points="127,17 147,17 147,37 127,37 	"/>
</g>
<g>
	<rect x="331.238" y="360.243" transform="matrix(-0.7071 -0.7071 0.7071 -0.7071 322.9713 858.2645)" width="16" height="4"/>
	<rect x="331.238" y="351.758" transform="matrix(-0.7071 0.7071 -0.7071 -0.7071 829.2601 364.0138)" width="16" height="4"/>
</g>
</svg>
